<svg xmlns="http://www.w3.org/2000/svg" version="1.1" xmlns:xlink="http://www.w3.org/1999/xlink" xmlns:svgjs="http://svgjs.dev/svgjs" width="1000" height="750" viewBox="0 0 1000 750"><rect width="1000" height="750" fill="#ed1703"></rect><g transform="matrix(0.834,0,0,0.834,82.49454545454546,115.4193570850203)"><svg viewBox="0 0 396 247" data-background-color="#ed1703" preserveAspectRatio="xMidYMid meet" height="623" width="1000" xmlns="http://www.w3.org/2000/svg" xmlns:xlink="http://www.w3.org/1999/xlink"><g id="tight-bounds" transform="matrix(1,0,0,1,0.2400000000000091,-0.09999999999999432)"><svg viewBox="0 0 395.52 247.2" height="247.2" width="395.52"><g><svg></svg></g><g><svg viewBox="0 0 395.52 247.2" height="247.2" width="395.52"><g transform="matrix(1,0,0,1,75.54432,92.65234391752577)"><svg viewBox="0 0 244.43135999999998 61.89531216494845" height="61.89531216494845" width="244.43135999999998"><g><svg viewBox="0 0 244.43135999999998 61.89531216494845" height="61.89531216494845" width="244.43135999999998"><g><svg viewBox="0 0 244.43135999999998 61.89531216494845" height="61.89531216494845" width="244.43135999999998"><g><svg viewBox="0 0 244.43135999999998 61.89531216494845" height="61.89531216494845" width="244.43135999999998"><g id="textblocktransform"><svg viewBox="0 0 244.43135999999998 61.89531216494845" height="61.89531216494845" width="244.43135999999998" id="textblock"><g><svg viewBox="0 0 244.43135999999998 61.89531216494845" height="61.89531216494845" width="244.43135999999998"><g transform="matrix(1,0,0,1,0,0)"><svg width="244.43135999999998" viewBox="2.9800000190734863 -37.29999923706055 151.5500030517578 38.369998931884766" height="61.89531216494845" data-palette-color="#ffffff"><path d="M23.78-36.67L23.78-36.67Q24.32-36.67 24.56-36.52L24.56-36.52Q24.8-36.04 24.88-35.67 24.95-35.3 24.95-34.81L24.95-34.81Q25-34.08 24.98-33.76 24.95-33.45 24.9-33.11L24.9-33.11Q24.85-32.32 24.85-31.62 24.85-30.91 24.85-30.13L24.85-30.13Q24.85-28.42 24.9-26.66 24.95-24.9 24.95-23.19L24.95-23.19Q24.95-22.51 24.93-21.85 24.9-21.19 24.9-20.51L24.9-20.51Q24.9-20.36 24.93-20.19 24.95-20.02 24.95-19.87L24.95-19.87Q24.95-19.43 24.93-19.02 24.9-18.6 24.9-18.21L24.9-18.21Q24.9-18.02 24.9-17.87 24.9-17.72 24.95-17.48L24.95-17.48Q24.85-17.09 24.85-16.94L24.85-16.94Q24.85-16.16 24.9-15.36 24.95-14.55 24.95-13.77L24.95-13.77Q24.95-13.04 24.98-12.35 25-11.67 25-10.94L25-10.94Q25-10.55 24.98-10.11 24.95-9.67 24.95-9.23L24.95-9.23Q24.95-8.2 25-7.15 25.05-6.1 25.1-5.08L25.1-5.08Q25.1-4.39 25.1-3.74 25.1-3.08 25.2-2.39L25.2-2.39Q25.2-1.61 25.12-1.25 25.05-0.88 24.95-0.54L24.95-0.54Q24.56-0.44 24.44-0.46 24.32-0.49 24.17-0.49L24.17-0.49Q23.49-0.29 23.29-0.12 23.1 0.05 22.85 0.24L22.85 0.24Q22.66 0.24 22.39 0.27 22.12 0.29 21.97 0.44L21.97 0.44Q21.73 0.34 21.58 0.39 21.44 0.44 21.29 0.44L21.29 0.44Q20.61 0.49 20.36 0.61 20.12 0.73 19.68 0.73L19.68 0.73Q19.29 0.1 19.09-0.27 18.9-0.63 18.46-0.59L18.46-0.59Q17.82-1.56 17.55-2.64 17.29-3.71 16.65-4.59L16.65-4.59Q16.6-4.98 16.5-5.08 16.41-5.18 16.31-5.47L16.31-5.47Q16.11-5.86 15.97-6.3 15.82-6.74 15.58-7.13L15.58-7.13Q15.19-7.96 14.79-8.76 14.4-9.57 14.06-10.45L14.06-10.45Q13.92-10.84 13.82-11.25 13.72-11.67 13.57-12.06L13.57-12.06Q13.48-12.26 13.35-12.45 13.23-12.65 13.13-12.79L13.13-12.79Q12.84-13.33 12.57-13.87 12.3-14.4 11.96-14.94L11.96-14.94Q11.87-15.19 11.69-15.41 11.52-15.63 11.33-15.87L11.33-15.87Q11.18-16.21 11.06-16.55 10.94-16.89 10.79-17.24L10.79-17.24Q10.69-17.53 10.5-17.85 10.3-18.16 10.21-18.46L10.21-18.46Q10.11-18.7 10.06-18.95 10.01-19.19 9.77-19.38L9.77-19.38Q9.42-18.8 9.42-18.6L9.42-18.6Q9.38-18.02 9.35-17.65 9.33-17.29 9.33-16.99L9.33-16.99Q9.33-16.65 9.4-16.33 9.47-16.02 9.47-15.72L9.47-15.72Q9.57-14.55 9.62-13.35 9.67-12.16 9.67-10.99L9.67-10.99Q9.62-10.06 9.64-9.57 9.67-9.08 9.72-8.59L9.72-8.59Q9.77-8.11 9.74-7.59 9.72-7.08 9.77-6.59L9.77-6.59Q9.77-5.47 9.79-4.42 9.81-3.37 9.81-2.25L9.81-2.25 9.81-1.07Q9.81-0.54 9.67-0.1L9.67-0.1Q8.94-0.1 8.72-0.15 8.5-0.2 8.25-0.29L8.25-0.29Q7.96-0.24 7.79-0.07 7.62 0.1 7.37 0.24L7.37 0.24Q6.84 0.2 6.79 0.27 6.74 0.34 6.59 0.44L6.59 0.44Q6.45 0.49 6.32 0.44 6.2 0.39 6.05 0.39L6.05 0.39Q5.66 0.29 5.42 0.29L5.42 0.29Q5.13 0.39 4.86 0.49 4.59 0.59 4.3 0.63L4.3 0.63Q4 0.1 3.96-0.63 3.91-1.37 3.56-1.9L3.56-1.9Q3.66-2.1 3.69-2.15 3.71-2.2 3.71-2.44L3.71-2.44Q3.71-3.56 3.66-4.69 3.61-5.81 3.61-6.93L3.61-6.93Q3.61-7.86 3.49-8.74 3.37-9.62 3.37-10.55L3.37-10.55Q3.37-10.84 3.42-11.13 3.47-11.43 3.47-11.77L3.47-11.77Q3.47-11.91 3.44-12.06 3.42-12.21 3.42-12.3L3.42-12.3Q3.32-13.18 3.3-14.11 3.27-15.04 3.27-15.97L3.27-15.97Q3.22-16.5 3.2-17.09 3.17-17.68 3.17-18.31L3.17-18.31Q3.17-18.55 3.22-18.85 3.27-19.14 3.27-19.43L3.27-19.43 3.27-21.48Q3.17-22.07 3.2-22.27 3.22-22.46 3.22-22.66L3.22-22.66Q3.22-23.1 3.15-23.51 3.08-23.93 3.08-24.41L3.08-24.41Q3.08-24.76 3.15-25.07 3.22-25.39 3.22-25.73L3.22-25.73Q3.22-26.46 3.15-27.15 3.08-27.83 3.08-28.56L3.08-28.56 3.08-32.71Q3.08-33.06 3.03-33.4 2.98-33.74 2.98-34.13L2.98-34.13Q3.27-34.81 3.52-34.84 3.76-34.86 3.96-35.01L3.96-35.01Q4.49-34.91 4.88-35.11L4.88-35.11Q5.52-35.06 5.66-35.25L5.66-35.25Q5.76-35.16 5.93-35.18 6.1-35.21 6.25-35.16L6.25-35.16Q6.4-35.25 6.49-35.35 6.59-35.45 6.79-35.55L6.79-35.55Q7.32-35.84 7.42-35.91 7.52-35.99 7.67-36.08L7.67-36.08Q7.91-36.08 7.98-35.94 8.06-35.79 8.3-35.79L8.3-35.79Q8.4-35.6 8.54-35.4 8.69-35.21 8.89-35.11L8.89-35.11Q9.28-34.28 9.81-33.69L9.81-33.69Q10.25-32.42 10.82-31.25 11.38-30.08 12.01-28.91L12.01-28.91Q12.01-28.76 12.06-28.54 12.11-28.32 12.16-28.22L12.16-28.22Q12.4-27.69 12.87-26.83 13.33-25.98 13.67-25.44L13.67-25.44Q13.77-25.24 13.92-25.1 14.06-24.95 14.16-24.76L14.16-24.76Q14.31-24.51 14.4-24.22 14.5-23.93 14.65-23.68L14.65-23.68Q14.89-23.1 15.21-22.53 15.53-21.97 15.87-21.39L15.87-21.39Q15.97-21.09 16.09-20.8 16.21-20.51 16.36-20.21L16.36-20.21Q16.75-19.34 17.07-18.87 17.38-18.41 17.53-17.87L17.53-17.87Q17.87-17.48 18.07-17.02 18.26-16.55 18.65-16.26L18.65-16.26Q18.7-16.5 18.75-17.7 18.8-18.9 18.8-20.31 18.8-21.73 18.8-23 18.8-24.27 18.8-24.71L18.8-24.71Q18.8-26.03 18.75-27.32 18.7-28.61 18.7-29.88L18.7-29.88Q18.7-30.91 18.73-31.96 18.75-33.01 18.8-34.03L18.8-34.03Q18.85-34.57 18.82-35.03 18.8-35.5 18.85-35.99L18.85-35.99Q18.9-36.23 19.04-36.47 19.19-36.72 19.29-36.96L19.29-36.96Q19.92-37.06 20.26-36.72L20.26-36.72Q20.56-36.87 20.97-36.87 21.39-36.87 21.68-36.91L21.68-36.91Q22.07-36.96 22.12-36.99 22.17-37.01 22.27-37.01L22.27-37.01Q22.46-36.91 22.63-36.87 22.8-36.82 23.05-36.72L23.05-36.72Q23.49-36.87 23.78-36.67ZM54.83-19.38L54.83-19.38Q54.73-19.19 54.64-19.02 54.54-18.85 54.49-18.65L54.49-18.65Q54.69-18.46 54.86-18.24 55.03-18.02 55.03-17.77L55.03-17.77Q55.03-17.58 54.95-17.41 54.88-17.24 54.93-17.09L54.93-17.09Q54.73-16.75 54.51-16.46 54.29-16.16 54.2-15.82L54.2-15.82Q54-15.63 53.88-15.43 53.76-15.23 53.66-15.04L53.66-15.04Q53.42-14.94 53.34-14.72 53.27-14.5 53.07-14.36L53.07-14.36Q53.02-14.16 52.59-13.43 52.15-12.7 51.61-11.87 51.07-11.04 50.58-10.25 50.1-9.47 49.9-9.23L49.9-9.23Q49.8-8.98 49.68-8.84 49.56-8.69 49.41-8.5L49.41-8.5Q49.31-8.35 49.27-8.18 49.22-8.01 49.12-7.91L49.12-7.91Q49.02-7.71 48.9-7.57 48.78-7.42 48.68-7.18L48.68-7.18Q48.19-6.54 47.7-5.66 47.21-4.79 46.77-4.1L46.77-4.1Q46.53-3.71 46.31-3.32 46.09-2.93 45.85-2.54L45.85-2.54Q45.6-2.15 45.36-1.81 45.11-1.46 44.87-1.07L44.87-1.07Q44.48-0.78 44.19-0.37 43.89 0.05 43.5 0.34L43.5 0.34Q42.87 0.34 42.72-0.24L42.72-0.24Q42.09-0.39 42.09-0.24 42.09-0.1 42.09 0L42.09 0Q41.89 0.1 41.82 0.29 41.75 0.49 41.55 0.59L41.55 0.59Q41.16 0.49 40.89 0.27 40.62 0.05 40.13 0.1L40.13 0.1Q39.94-0.2 39.69-0.42 39.45-0.63 39.26-0.88L39.26-0.88Q39.16-1.17 38.99-1.37 38.82-1.56 38.67-1.76L38.67-1.76Q38.52-2 38.38-2.2 38.23-2.39 38.08-2.59L38.08-2.59Q37.74-3.03 37.42-3.44 37.11-3.86 36.86-4.3L36.86-4.3Q36.47-4.88 36.11-5.49 35.74-6.1 35.35-6.69L35.35-6.69Q35.15-6.98 34.96-7.28 34.76-7.57 34.62-7.86L34.62-7.86Q34.52-8.11 34.35-8.45 34.18-8.79 33.93-8.89L33.93-8.89Q33.84-9.28 33.59-9.47 33.35-9.67 33.1-9.96L33.1-9.96Q32.76-10.35 32.47-10.82 32.18-11.28 31.88-11.77L31.88-11.77Q30.91-13.13 30.05-14.45 29.2-15.77 28.37-17.19L28.37-17.19Q28.61-17.97 28.61-18.36 28.61-18.75 28.85-18.99L28.85-18.99Q28.85-19.19 28.95-19.58L28.95-19.58Q29.59-20.65 30.17-21.53L30.17-21.53Q30.71-22.36 30.93-22.9 31.15-23.44 31.39-24.02L31.39-24.02Q31.64-24.17 31.78-24.39 31.93-24.61 32.18-24.8L32.18-24.8Q32.27-25.34 32.61-25.71 32.96-26.07 33.05-26.61L33.05-26.61Q33.49-26.95 33.54-27.39L33.54-27.39Q34.18-27.83 34.32-28.56L34.32-28.56Q34.71-28.96 34.98-29.44 35.25-29.93 35.5-30.47L35.5-30.47Q36.08-30.96 36.42-31.74L36.42-31.74Q36.72-31.93 36.86-32.28 37.01-32.62 37.25-32.86L37.25-32.86Q37.64-33.5 37.86-33.91 38.08-34.33 38.33-34.77L38.33-34.77Q38.67-34.77 38.77-35.01 38.86-35.25 39.16-35.21L39.16-35.21Q39.16-35.64 39.4-35.99L39.4-35.99Q39.5-36.04 39.69-36.11 39.89-36.18 39.89-36.28L39.89-36.28Q39.79-36.87 39.94-36.96 40.09-37.06 40.18-37.16L40.18-37.16Q40.72-37.06 40.92-37.01 41.11-36.96 41.55-36.67L41.55-36.67Q42.04-36.67 42.23-36.47 42.43-36.28 42.67-36.18L42.67-36.18Q42.87-35.99 42.99-35.79 43.11-35.6 43.36-35.5L43.36-35.5Q43.75-34.96 44.19-34.33 44.63-33.69 45.02-33.15L45.02-33.15Q45.55-32.42 46.12-31.76 46.68-31.1 47.17-30.32L47.17-30.32Q47.31-30.08 47.7-29.47 48.09-28.86 48.58-28.17 49.07-27.49 49.46-26.93 49.85-26.37 50-26.27L50-26.27Q50.14-26.03 50.63-25.34 51.12-24.66 51.68-23.9 52.24-23.14 52.78-22.46 53.32-21.78 53.51-21.58L53.51-21.58Q54.05-20.85 54.32-20.39 54.59-19.92 54.83-19.38ZM43.65-10.21L43.65-10.21Q44.19-10.94 44.48-11.52 44.77-12.11 45.07-12.7L45.07-12.7Q45.55-13.28 45.65-13.53 45.75-13.77 45.9-14.01L45.9-14.01Q46.29-14.6 46.7-15.19 47.12-15.77 47.36-16.46L47.36-16.46Q47.65-16.65 47.8-16.94 47.95-17.24 48.24-17.48L48.24-17.48Q47.95-18.51 47.56-19.07 47.17-19.63 46.77-20.17L46.77-20.17Q46.63-20.41 46.48-20.65 46.34-20.9 46.19-21.14L46.19-21.14Q45.99-21.29 45.87-21.44 45.75-21.58 45.6-21.73L45.6-21.73Q45.51-21.97 45.31-22.36L45.31-22.36Q45.11-22.61 44.92-22.8 44.72-23 44.58-23.29L44.58-23.29Q44.38-23.49 44.09-23.83 43.8-24.17 43.48-24.58 43.16-25 42.92-25.37 42.67-25.73 42.53-25.98L42.53-25.98Q42.43-26.22 42.36-26.39 42.28-26.56 42.19-26.76L42.19-26.76Q41.94-27.1 41.7-27.37 41.45-27.64 41.21-27.98L41.21-27.98Q41.06-27.88 40.94-27.86 40.82-27.83 40.72-27.73L40.72-27.73Q40.38-27.1 39.96-26.56 39.55-26.03 39.16-25.39L39.16-25.39Q38.82-24.8 38.47-24.19 38.13-23.58 37.79-23L37.79-23Q37.55-22.66 37.33-22.34 37.11-22.02 36.86-21.63L36.86-21.63Q36.62-21.29 36.45-20.92 36.28-20.56 36.03-20.21L36.03-20.21Q35.64-19.73 35.4-19.34 35.15-18.95 34.91-18.41L34.91-18.41Q35.06-18.12 35.37-17.6 35.69-17.09 36.03-16.58 36.37-16.06 36.64-15.63 36.91-15.19 36.96-15.04L36.96-15.04Q37.35-14.7 37.6-14.28 37.84-13.87 38.23-13.48L38.23-13.48Q38.43-13.09 38.67-12.79 38.91-12.5 39.16-12.16L39.16-12.16Q39.4-11.82 39.79-11.16 40.18-10.5 40.57-9.81 40.96-9.13 41.35-8.54 41.75-7.96 41.99-7.81L41.99-7.81Q42.48-8.35 42.8-9.01 43.11-9.67 43.65-10.21ZM77.92-34.91L77.92-34.91Q77.83-34.72 77.85-34.52 77.88-34.33 77.88-34.08L77.88-34.08Q77.78-33.5 77.88-33.5 77.97-33.5 77.97-33.4L77.97-33.4 77.63-32.91Q77.63-32.62 77.51-32.37 77.39-32.13 77.44-31.79L77.44-31.79Q77.29-31.54 77.17-31.3 77.05-31.05 76.8-30.81L76.8-30.81 76.17-30.81Q75.63-30.81 75.02-30.74 74.41-30.66 73.82-30.66L73.82-30.66Q73.73-30.66 73.58-30.69 73.43-30.71 73.29-30.71L73.29-30.71Q73.19-30.71 73.04-30.69 72.9-30.66 72.7-30.66L72.7-30.66Q71.97-30.66 71.26-30.74 70.55-30.81 69.77-30.81L69.77-30.81Q69.58-30.81 69.38-30.81 69.18-30.81 68.94-30.76L68.94-30.76Q68.89-29.93 68.87-29.08 68.84-28.22 68.84-27.34L68.84-27.34Q68.84-27.1 68.79-26.83 68.75-26.56 68.75-26.32L68.75-26.32Q68.7-25.68 68.67-25.1 68.65-24.51 68.65-23.88L68.65-23.88Q68.65-22.51 68.67-21.14 68.7-19.78 68.75-18.36L68.75-18.36Q68.79-17.63 68.84-16.94 68.89-16.26 68.89-15.53L68.89-15.53Q68.89-13.87 68.84-12.23 68.79-10.6 68.79-8.94L68.79-8.94Q68.79-8.4 68.75-7.93 68.7-7.47 68.7-6.93L68.7-6.93Q68.7-5.81 68.75-4.69 68.79-3.56 68.79-2.44L68.79-2.44Q68.79-1.9 68.77-1.37 68.75-0.83 68.75-0.29L68.75-0.29Q68.5 0.1 68.4 0.39 68.31 0.68 67.82 0.68L67.82 0.68Q67.48 0.59 67.5 0.46 67.52 0.34 67.43 0.24L67.43 0.24Q66.99 0.2 66.77 0.32 66.55 0.44 66.25 0.54L66.25 0.54Q66.11 0.49 65.94 0.49 65.77 0.49 65.62 0.49L65.62 0.49Q65.52 0.49 65.42 0.56 65.33 0.63 64.99 0.63L64.99 0.63Q64.69 0.68 64.64 0.54 64.59 0.39 64.35 0.39L64.35 0.39Q64.11 0.54 63.79 0.61 63.47 0.68 63.18 0.68L63.18 0.68Q62.89 0.49 62.91 0.32 62.93 0.15 62.84-0.05L62.84-0.05Q62.79-0.15 62.67-0.32 62.54-0.49 62.45-0.59L62.45-0.59Q62.54-1.27 62.59-1.81 62.64-2.34 62.64-2.98L62.64-2.98Q62.64-4.25 62.54-5.47 62.45-6.69 62.45-7.96L62.45-7.96Q62.45-8.35 62.54-8.79 62.64-9.23 62.64-9.72L62.64-9.72Q62.54-10.11 62.59-10.18 62.64-10.25 62.64-10.35L62.64-10.35Q62.64-10.64 62.62-10.94 62.59-11.23 62.59-11.52L62.59-11.52Q62.59-12.11 62.62-12.7 62.64-13.28 62.64-13.87L62.64-13.87Q62.64-14.11 62.62-14.38 62.59-14.65 62.59-14.89L62.59-14.89Q62.54-15.33 62.57-15.82 62.59-16.31 62.59-16.8L62.59-16.8Q62.59-19.14 62.52-21.44 62.45-23.73 62.45-26.07L62.45-26.07Q62.45-27.25 62.57-28.39 62.69-29.54 62.69-30.71L62.69-30.71Q62.69-30.86 62.59-31.1 62.5-31.35 62.4-31.45L62.4-31.45Q62.15-31.45 61.93-31.47 61.71-31.49 61.47-31.49L61.47-31.49Q60.93-31.49 60.44-31.35L60.44-31.35Q59.52-31.3 58.66-31.23 57.81-31.15 56.93-31.1L56.93-31.1Q56.34-31.15 56.22-31.13 56.1-31.1 55.95-31.1L55.95-31.1Q55.56-31.1 55.37-31.3L55.37-31.3 55.37-31.93Q55.07-32.52 55.12-32.57 55.17-32.62 55.17-32.71L55.17-32.71Q55.17-32.86 54.9-33.03 54.63-33.2 54.63-33.59L54.63-33.59Q54.58-33.98 54.44-34.18 54.29-34.38 54.29-34.57L54.29-34.57Q54.29-34.91 54.44-35.35L54.44-35.35Q54.88-35.6 55.29-35.69 55.71-35.79 56.25-35.94L56.25-35.94Q56.54-36.04 56.78-36.13 57.03-36.23 57.32-36.28L57.32-36.28Q57.66-36.33 58-36.33 58.34-36.33 58.69-36.38L58.69-36.38Q59.42-36.52 60.22-36.62 61.03-36.72 61.76-36.72L61.76-36.72Q62.45-36.72 63.13-36.55 63.81-36.38 64.35-36.38L64.35-36.38Q65.13-36.38 65.84-36.28 66.55-36.18 67.33-36.18L67.33-36.18Q67.43-36.18 67.65-36.11 67.87-36.04 68.16-36.04L68.16-36.04 72.9-36.04Q73.29-35.94 73.46-35.99 73.63-36.04 73.77-36.04L73.77-36.04Q74.16-36.04 74.51-35.99 74.85-35.94 75.24-35.94L75.24-35.94Q75.58-35.94 75.78-35.99L75.78-35.99Q76.17-35.94 76.51-35.77 76.85-35.6 77.29-35.6L77.29-35.6Q77.49-35.45 77.58-35.23 77.68-35.01 77.92-34.91ZM95.35-5.62L95.35-5.62Q95.26-5.32 95.26-5.08L95.26-5.08Q95.26-4.79 95.33-4.49 95.4-4.2 95.4-3.91L95.4-3.91Q95.31-3.03 95.26-2.83L95.26-2.83Q94.96-2.59 94.06-2.27 93.16-1.95 91.91-1.64 90.67-1.32 89.23-1 87.79-0.68 86.47-0.39 85.15-0.1 84.05 0.12 82.95 0.34 82.41 0.44L82.41 0.44Q82.17 0.49 81.95 0.56 81.73 0.63 81.49 0.73L81.49 0.73Q81.24 0.78 81 0.76 80.75 0.73 80.51 0.83L80.51 0.83Q80.36 0.83 80.24 0.68 80.12 0.54 80.02 0.44L80.02 0.44Q80.02 0.15 79.92 0 79.83-0.15 79.7-0.24 79.58-0.34 79.48-0.46 79.39-0.59 79.39-0.88L79.39-0.88Q79.29-1.27 79.12-1.49 78.95-1.71 78.95-1.9L78.95-1.9Q78.75-2.54 78.75-3.03L78.75-3.03Q78.75-3.27 78.8-3.42 78.85-3.56 78.95-3.71L78.95-3.71Q79.24-3.81 79.39-3.96 79.53-4.1 79.78-4.2L79.78-4.2Q80.07-4.35 80.61-4.47 81.14-4.59 81.78-4.74 82.41-4.88 83-5.03 83.59-5.18 83.98-5.32L83.98-5.32Q84.12-5.37 84.27-5.37 84.42-5.37 84.51-5.47L84.51-5.47Q84.42-6.25 84.39-7.03 84.37-7.81 84.27-8.54L84.27-8.54Q84.27-8.89 84.22-9.23 84.17-9.57 84.17-9.86L84.17-9.86 84.22-10.89Q84.22-12.74 84.07-14.6 83.93-16.46 83.93-18.31L83.93-18.31 83.93-19.97Q83.93-20.36 83.9-20.7 83.88-21.04 83.88-21.44L83.88-21.44Q83.88-22.36 83.9-23.22 83.93-24.07 83.93-25L83.93-25 83.93-29.49Q82.85-29.74 81.93-29.47 81-29.2 80.02-29.1L80.02-29.1Q79.68-29.44 79.63-29.83L79.63-29.83Q79.24-30.37 79.09-30.52 78.95-30.66 78.75-31.35L78.75-31.35Q78.41-32.03 78.19-32.2 77.97-32.37 77.97-32.76L77.97-32.76Q77.97-33.01 78.09-33.11 78.22-33.2 78.31-33.45L78.31-33.45Q78.75-33.64 78.83-33.72 78.9-33.79 79-33.84L79-33.84Q79.48-34.18 80.12-34.33 80.75-34.47 81.34-34.67L81.34-34.67Q81.83-34.81 82.27-35.01 82.71-35.21 83.24-35.35L83.24-35.35Q83.88-35.55 84.51-35.74 85.15-35.94 85.73-36.08L85.73-36.08Q86.13-36.18 86.49-36.16 86.86-36.13 87.25-36.38L87.25-36.38Q87.88-36.28 88.59-36.4 89.3-36.52 90.13-36.72 90.96-36.91 91.74-37.06 92.52-37.21 92.91-37.3L92.91-37.3Q93.16-37.21 93.25-37.06 93.35-36.91 93.55-36.87L93.55-36.87Q93.6-36.72 93.64-36.5 93.69-36.28 93.84-36.18L93.84-36.18Q93.84-35.64 94.08-35.4L94.08-35.4Q94.04-34.91 94.26-34.3 94.47-33.69 94.47-33.15L94.47-33.15Q94.23-32.42 93.67-32.23 93.11-32.03 92.45-31.88 91.79-31.74 91.15-31.62 90.52-31.49 90.13-31.35L90.13-31.35Q90.13-30.66 90.15-29.93 90.18-29.2 90.18-28.47L90.18-28.47Q90.18-27.78 90.15-27.1 90.13-26.42 90.13-25.73L90.13-25.73Q90.13-24.71 90.1-23.63 90.08-22.56 90.08-21.48L90.08-21.48Q90.08-19.97 90.13-18.46 90.18-16.94 90.28-15.43L90.28-15.43Q90.32-15.19 90.32-14.7L90.32-14.7Q90.32-12.74 90.4-10.86 90.47-8.98 90.67-6.98L90.67-6.98Q91.3-6.93 91.64-7.18L91.64-7.18Q91.89-7.18 92.11-7.28 92.33-7.37 92.52-7.47L92.52-7.47Q92.81-7.52 93.33-7.64 93.84-7.76 93.99-7.76L93.99-7.76Q94.43-7.71 94.52-7.76L94.52-7.76Q94.67-7.47 94.96-7.32L94.96-7.32Q95.06-6.88 95.13-6.47 95.21-6.05 95.35-5.62ZM109.37-35.99L109.37-35.99Q109.46-35.79 109.58-35.72 109.71-35.64 109.76-35.4L109.76-35.4Q110.1-35.16 110.29-35.03 110.49-34.91 110.54-34.62L110.54-34.62Q110.98-34.28 111.05-34.18 111.12-34.08 111.17-33.94L111.17-33.94Q111.42-33.74 111.64-33.59 111.86-33.45 111.95-33.15L111.95-33.15Q112.34-32.81 112.44-32.62 112.54-32.42 112.59-32.18L112.59-32.18Q112.39-31.84 111.81-31.25 111.22-30.66 110.49-30 109.76-29.35 109.07-28.74 108.39-28.13 108-27.78L108-27.78Q107.9-27.59 107.75-27.44 107.61-27.29 107.51-27.1L107.51-27.1Q107.22-26.86 106.97-26.59 106.73-26.32 106.39-26.17L106.39-26.17Q105.9-25.49 105.02-24.83 104.14-24.17 103.85-23.54L103.85-23.54Q103.9-23.39 104.07-23.24 104.24-23.1 104.34-23L104.34-23Q104.73-22.61 105.26-22.29 105.8-21.97 106.19-21.58L106.19-21.58Q106.58-21.24 106.97-20.92 107.36-20.61 107.75-20.26L107.75-20.26Q107.95-20.07 108.24-19.68L108.24-19.68Q108.73-19.29 109.19-18.97 109.66-18.65 110.1-18.26L110.1-18.26Q111.03-17.48 111.9-16.67 112.78-15.87 113.76-15.09L113.76-15.09 114.15-14.65Q114.15-14.26 114.37-13.75 114.59-13.23 114.78-12.89L114.78-12.89Q114.69-12.4 114.81-12.28 114.93-12.16 115.03-12.06L115.03-12.06Q114.98-11.13 115.08-10.84L115.08-10.84Q114.25-10.11 113.54-9.5 112.83-8.89 112.29-8.3L112.29-8.3Q111.86-7.76 111.39-7.35 110.93-6.93 110.39-6.45L110.39-6.45Q110.1-6.05 109.9-5.91L109.9-5.91Q109.56-5.57 109.22-5.37L109.22-5.37Q108.63-4.83 108.07-4.35 107.51-3.86 106.97-3.37L106.97-3.37Q106.58-3.03 106.24-2.71 105.9-2.39 105.56-2L105.56-2Q105.26-1.71 104.9-1.32 104.53-0.93 104.14-0.68L104.14-0.68Q103.99-0.39 103.75-0.17 103.51 0.05 103.31 0.29L103.31 0.29Q102.97 0.49 102.68 0.68 102.38 0.88 101.99 1.07L101.99 1.07Q101.6 0.78 101.24 0.54 100.87 0.29 100.43 0.2L100.43 0.2Q100.14-0.05 99.99-0.29 99.84-0.54 99.45-0.63L99.45-0.63Q99.36-0.78 99.23-0.95 99.11-1.12 99.01-1.32L99.01-1.32Q98.43-1.37 98.09-2.05L98.09-2.05Q98.18-2.34 98.35-2.49 98.53-2.64 98.43-3.03L98.43-3.03Q98.72-3.52 99.14-3.88 99.55-4.25 99.94-4.64L99.94-4.64Q100.38-5.03 100.75-5.44 101.11-5.86 101.55-6.25L101.55-6.25Q101.8-6.49 102.04-6.71 102.28-6.93 102.58-7.18L102.58-7.18Q103.12-7.71 103.68-8.18 104.24-8.64 104.82-9.18L104.82-9.18Q105.61-9.96 106.44-10.67 107.27-11.38 107.95-12.26L107.95-12.26Q107.9-12.45 107.8-12.52 107.7-12.6 107.66-12.74L107.66-12.74Q106.87-13.48 106.12-14.18 105.36-14.89 104.48-15.43L104.48-15.43Q104.19-15.72 104.09-15.92L104.09-15.92Q103.21-16.55 102.41-17.33 101.6-18.12 100.62-18.65L100.62-18.65Q100.43-18.9 100.16-19.07 99.89-19.24 99.65-19.38L99.65-19.38Q99.5-19.63 99.33-19.8 99.16-19.97 98.92-20.07L98.92-20.07Q98.53-20.41 98.4-20.63 98.28-20.85 97.99-20.9L97.99-20.9Q97.89-21.14 97.67-21.29 97.45-21.44 97.21-21.63L97.21-21.63Q97.11-21.92 96.91-22.12L96.91-22.12Q96.87-22.51 96.96-22.68 97.06-22.85 97.11-22.95L97.11-22.95Q97.06-23.24 96.84-23.39 96.62-23.54 96.62-23.88L96.62-23.88Q96.62-24.07 96.74-24.15 96.87-24.22 96.91-24.37L96.91-24.37 97.06-25.1Q97.45-25.39 97.72-25.81 97.99-26.22 98.43-26.46L98.43-26.46Q98.92-27.2 99.65-27.69L99.65-27.69Q99.89-28.08 100.26-28.32 100.62-28.56 100.87-28.96L100.87-28.96Q101.26-29.2 101.53-29.49 101.8-29.79 102.19-30.03L102.19-30.03Q102.28-30.22 102.41-30.35 102.53-30.47 102.58-30.62L102.58-30.62Q103.9-31.88 104.9-32.81 105.9-33.74 106.97-34.67L106.97-34.67Q107.27-34.91 107.56-35.21 107.85-35.5 108.19-35.74L108.19-35.74Q108.29-35.84 108.44-35.84 108.58-35.84 108.73-35.94L108.73-35.94Q109.32-35.94 109.37-35.99ZM138.12-36.28L138.61-36.13Q139.2-36.28 139.44-36.25 139.68-36.23 139.93-36.18L139.93-36.18Q140.22-35.99 140.42-35.69L140.42-35.69Q140.42-34.67 140.39-33.67 140.37-32.67 140.37-31.64L140.37-31.64Q140.37-29.79 140.42-27.93 140.47-26.07 140.42-24.22L140.42-24.22Q140.51-23.78 140.47-23.73 140.42-23.68 140.42-23.58L140.42-23.58Q140.42-21.73 140.51-19.92 140.61-18.12 140.61-16.26L140.61-16.26 140.61-9.77Q140.61-7.67 140.73-5.62 140.86-3.56 140.86-1.51L140.86-1.51Q140.86-1.32 140.61-0.98L140.61-0.98Q140.51-0.59 140.32-0.34L140.32-0.34Q139.88-0.29 139.49-0.49L139.49-0.49Q139.29-0.49 139.22-0.37 139.15-0.24 139-0.15L139-0.15Q138.61-0.15 138.37 0.05 138.12 0.24 137.78 0.24L137.78 0.24Q137.49 0.24 137.22 0.17 136.95 0.1 136.61 0.1L136.61 0.1Q136.51 0.1 136.32 0.27 136.12 0.44 136.02 0.49L136.02 0.49Q135.78 0.49 135.58 0.56 135.39 0.63 135.14 0.63L135.14 0.63Q134.9 0.44 134.92 0.05 134.95-0.34 134.61-0.44L134.61-0.44Q134.61-0.68 134.63-0.98 134.66-1.27 134.66-1.56L134.66-1.56Q134.66-3.47 134.56-5.4 134.46-7.32 134.41-9.23L134.41-9.23Q134.36-10.06 134.39-10.86 134.41-11.67 134.41-12.5L134.41-12.5Q134.41-12.94 134.41-13.38 134.41-13.82 134.31-14.21L134.31-14.21Q134.02-14.26 133.8-14.14 133.58-14.01 133.34-14.01L133.34-14.01Q132.31-13.67 131.97-13.33L131.97-13.33Q131.68-13.33 131.48-13.23 131.29-13.13 131.04-13.04L131.04-13.04Q130.65-12.94 130.29-12.87 129.92-12.79 129.53-12.65L129.53-12.65Q129.28-12.55 129.04-12.45 128.8-12.35 128.55-12.26L128.55-12.26Q128.01-12.06 127.48-11.89 126.94-11.72 126.4-11.52L126.4-11.52Q125.87-11.43 125.48-11.23 125.09-11.04 124.69-10.84L124.69-10.84Q124.35-8.54 124.33-6.47 124.3-4.39 124.45-2.34L124.45-2.34Q124.35-2.05 124.35-1.68 124.35-1.32 124.21-1.07L124.21-1.07Q123.67-0.93 123.5-1.05 123.33-1.17 123.13-1.27L123.13-1.27Q122.94-1.22 122.81-1.07 122.69-0.93 122.59-0.83L122.59-0.83Q122.2-0.83 121.98-0.66 121.76-0.49 121.57-0.39L121.57-0.39Q121.42-0.34 121.28-0.39 121.13-0.44 120.93-0.34L120.93-0.34Q120.45-0.34 120.47-0.46 120.5-0.59 120.35-0.59L120.35-0.59Q120.15-0.59 120.08-0.42 120.01-0.24 119.81-0.15L119.81-0.15Q119.62-0.05 119.37-0.02 119.13 0 118.88 0.1L118.88 0.1Q118.64-0.15 118.64-0.44 118.64-0.73 118.4-0.98L118.4-0.98Q118.3-1.66 118.27-2.32 118.25-2.98 118.1-3.66L118.1-3.66Q118.2-5.03 118.18-5.86 118.15-6.69 118.15-7.57L118.15-7.57Q118.15-8.35 118.1-9.13 118.05-9.91 118.01-10.69L118.01-10.69Q117.91-12.11 117.83-13.57 117.76-15.04 117.76-16.5L117.76-16.5Q117.76-17.72 117.88-18.9 118.01-20.07 118.01-21.29L118.01-21.29Q118.01-22.12 118.03-22.92 118.05-23.73 118.05-24.56L118.05-24.56Q118.05-25.24 118.03-25.9 118.01-26.56 118.01-27.2L118.01-27.2Q118.01-27.93 118.1-28.64 118.2-29.35 118.2-30.03L118.2-30.03Q118.2-30.86 118.1-31.67 118.01-32.47 118.01-33.3L118.01-33.3Q118.01-33.54 118.05-33.76 118.1-33.98 118.1-34.23L118.1-34.23Q118.05-34.77 118.15-34.89 118.25-35.01 118.35-35.21L118.35-35.21Q118.59-35.25 118.88-35.35 119.18-35.45 119.42-35.35L119.42-35.35Q119.71-35.64 120.23-35.64 120.74-35.64 120.98-35.99L120.98-35.99Q121.33-35.94 121.45-35.96 121.57-35.99 121.67-35.99L121.67-35.99Q122.11-35.89 122.13-36.01 122.16-36.13 122.3-36.13L122.3-36.13Q122.55-36.13 123.06-36.11 123.57-36.08 123.77-35.89L123.77-35.89Q124.26-33.3 124.3-30.62 124.35-27.93 124.35-25.29L124.35-25.29Q124.35-24.61 124.4-23.9 124.45-23.19 124.35-22.51L124.35-22.51Q124.35-22.22 124.3-21.95 124.26-21.68 124.26-21.39L124.26-21.39Q124.26-20.56 124.16-19.65 124.06-18.75 124.06-17.92L124.06-17.92Q124.65-17.58 125.06-17.7 125.48-17.82 125.87-17.97L125.87-17.97Q126.35-18.12 126.77-18.29 127.18-18.46 127.62-18.6L127.62-18.6Q128.01-18.8 128.48-18.92 128.94-19.04 129.33-19.14L129.33-19.14Q130.6-19.58 131.82-20.21 133.04-20.85 134.31-21.24L134.31-21.24Q134.22-23.93 134.22-26.59 134.22-29.25 134.22-31.88L134.22-31.88Q134.22-32.62 134.22-33.4 134.22-34.18 134.31-34.91L134.31-34.91Q134.36-35.11 134.44-35.23 134.51-35.35 134.51-35.6L134.51-35.6Q134.66-35.84 134.85-35.94 135.05-36.04 135.14-36.23L135.14-36.23Q135.24-36.13 135.36-36.06 135.49-35.99 135.63-35.94L135.63-35.94Q136.02-36.04 136.1-36.08 136.17-36.13 136.27-36.18L136.27-36.18Q136.51-36.28 136.9-36.28 137.29-36.28 137.54-36.28L137.54-36.28 138.12-36.28ZM154.53-33.2L154.53-33.2Q154.53-32.76 154.23-32.54 153.94-32.32 153.7-31.98L153.7-31.98Q153.21-31.54 152.84-31.08 152.48-30.62 151.99-30.18L151.99-30.18Q151.79-29.98 151.45-29.66 151.11-29.35 150.74-29.03 150.38-28.71 150.01-28.47 149.64-28.22 149.4-28.22L149.4-28.22Q149.01-28.22 148.4-28.49 147.79-28.76 147.35-28.86L147.35-28.86Q147.01-28.91 146.74-28.93 146.47-28.96 146.23-29.2L146.23-29.2Q145.35-29.39 145.1-29.81 144.86-30.22 144.57-30.66L144.57-30.66Q144.57-30.86 144.71-30.91 144.86-30.96 144.96-31.1L144.96-31.1Q145.44-31.74 145.79-32.15 146.13-32.57 146.57-33.01L146.57-33.01Q147.4-33.74 148.15-34.52 148.91-35.3 149.74-35.99L149.74-35.99Q150.13-36.04 150.33-36.28 150.52-36.52 150.91-36.52L150.91-36.52Q151.3-36.52 151.57-36.28 151.84-36.04 152.06-35.72 152.28-35.4 152.5-35.08 152.72-34.77 153.01-34.62L153.01-34.62Q153.35-34.38 153.94-33.98 154.53-33.59 154.53-33.2ZM147.84-24.12L147.84-24.12Q148.18-23.93 148.35-23.61 148.52-23.29 148.86-23.14L148.86-23.14Q149.15-23 149.5-23 149.84-23 150.08-22.9L150.08-22.9Q150.28-22.8 150.38-22.66 150.47-22.51 150.57-22.36L150.57-22.36Q150.86-22.12 151.47-21.92 152.08-21.73 152.28-21.48L152.28-21.48Q152.62-21.04 152.79-20.36 152.96-19.68 153.06-18.92 153.16-18.16 153.21-17.41 153.26-16.65 153.35-16.11L153.35-16.11Q153.45-14.99 153.6-13.89 153.74-12.79 153.74-11.67L153.74-11.67Q153.74-10.55 153.65-9.38 153.55-8.2 153.55-7.08L153.55-7.08Q153.55-6.49 153.53-5.62 153.5-4.74 153.11-4.25L153.11-4.25Q153.06-4.05 153.06-3.56L153.06-3.56 153.06-2Q153.06-1.71 153.11-1.42 153.16-1.12 153.16-0.78L153.16-0.78Q153.16-0.24 152.87 0L152.87 0Q152.72-0.05 152.55-0.05 152.38-0.05 152.23-0.05L152.23-0.05Q151.69-0.05 151.45 0.15L151.45 0.15Q150.91 0.1 150.42 0.05 149.94 0 149.4 0L149.4 0Q148.57 0 147.59 0.24L147.59 0.24Q147.4-0.24 147.42-0.78 147.45-1.32 147.2-1.76L147.2-1.76Q147.15-1.9 147.13-2.03 147.1-2.15 147.1-2.29L147.1-2.29Q147.25-2.88 147.25-3.1 147.25-3.32 147.25-3.56L147.25-3.56Q147.25-4.25 147.2-4.96 147.15-5.66 147.25-6.35L147.25-6.35Q147.25-6.59 147.32-6.79 147.4-6.98 147.4-7.23L147.4-7.23Q147.4-7.47 147.3-7.57 147.2-7.67 147.2-7.81L147.2-7.81Q147.2-7.96 147.23-8.3 147.25-8.64 147.35-8.74L147.35-8.74Q147.35-9.13 147.37-9.5 147.4-9.86 147.4-10.21L147.4-10.21Q147.4-10.99 147.35-11.77 147.3-12.55 147.3-13.28L147.3-13.28Q147.3-13.62 147.25-13.72 147.2-13.82 147.15-13.87 147.1-13.92 147.01-13.94 146.91-13.96 146.86-14.11L146.86-14.11Q147.06-16.26 146.71-18.41 146.37-20.56 146.37-22.75L146.37-22.75Q146.37-23.1 146.47-23.27 146.57-23.44 146.71-23.54 146.86-23.63 146.98-23.75 147.1-23.88 147.15-24.12L147.15-24.12Q147.54-24.02 147.84-24.12Z" opacity="1" transform="matrix(1,0,0,1,0,0)" fill="#ffffff" class="wordmark-text-0" data-fill-palette-color="primary" id="text-0"></path></svg></g></svg></g></svg></g></svg></g><g></g></svg></g></svg></g></svg></g><g><path d="M84.354 78.04A122.216 122.216 0 0 1 311.166 78.04L305.585 78.04A116.634 116.634 0 0 0 89.935 78.04L84.354 78.04M84.354 169.16A122.216 122.216 0 0 0 311.166 169.16L305.585 169.16A116.634 116.634 0 0 1 89.935 169.16L84.354 169.16" fill="#ffffff" stroke="transparent" data-fill-palette-color="tertiary"></path></g></svg></g><defs></defs></svg><rect width="395.52" height="247.2" fill="none" stroke="none" visibility="hidden"></rect></g></svg></g></svg>